<mxfile host="Electron" agent="Mozilla/5.0 (Windows NT 10.0; Win64; x64) AppleWebKit/537.36 (KHTML, like Gecko) draw.io/26.0.9 Chrome/128.0.6613.186 Electron/32.2.5 Safari/537.36" version="26.0.9" pages="3">
  <diagram name="Contexto" id="rE_ZmyrLvX1wC0EuzUnT">
    <mxGraphModel dx="2261" dy="836" grid="1" gridSize="10" guides="1" tooltips="1" connect="1" arrows="1" fold="1" page="1" pageScale="1" pageWidth="827" pageHeight="1169" math="0" shadow="0">
      <root>
        <mxCell id="0" />
        <mxCell id="1" parent="0" />
        <mxCell id="jy213AkqGe8UUyLfZH2U-1" value="# Contexto (Nível 1) &#xa;System_Boundary(&quot;E-commerce System&quot;, &quot;Plataforma de E-commerce baseada em Microserviços&quot;) { &#xa;    Person(&quot;Cliente&quot;, &quot;Usuário que navega, adiciona produtos ao carrinho e finaliza compras.&quot;) &#xa;    Person(&quot;Administrador&quot;, &quot;Usuário que gerencia produtos, pedidos e clientes.&quot;) &#xa;    System(&quot;Gateway de Pagamento&quot;, &quot;Serviço terceirizado para processar pagamentos.&quot;) &#xa;    System(&quot;Serviço de Notificação&quot;, &quot;Envia emails e notificações para clientes.&quot;) &#xa;}" style="text;whiteSpace=wrap;html=1;" parent="1" vertex="1">
          <mxGeometry x="-750" y="10" width="610" height="120" as="geometry" />
        </mxCell>
        <mxCell id="jy213AkqGe8UUyLfZH2U-2" value="Legend" style="shape=table;startSize=0;container=1;collapsible=0;childLayout=tableLayout;fontSize=16;align=left;verticalAlign=top;fillColor=none;strokeColor=none;fontColor=#4D4D4D;fontStyle=1;spacingLeft=6;spacing=0;resizable=0;" parent="1" vertex="1">
          <mxGeometry x="630" y="10" width="180" height="200" as="geometry" />
        </mxCell>
        <mxCell id="jy213AkqGe8UUyLfZH2U-3" value="" style="shape=tableRow;horizontal=0;startSize=0;swimlaneHead=0;swimlaneBody=0;strokeColor=inherit;top=0;left=0;bottom=0;right=0;collapsible=0;dropTarget=0;fillColor=none;points=[[0,0.5],[1,0.5]];portConstraint=eastwest;fontSize=12;" parent="jy213AkqGe8UUyLfZH2U-2" vertex="1">
          <mxGeometry width="180" height="35" as="geometry" />
        </mxCell>
        <mxCell id="jy213AkqGe8UUyLfZH2U-4" value="Person" style="shape=partialRectangle;html=1;whiteSpace=wrap;connectable=0;strokeColor=inherit;overflow=hidden;fillColor=#1E4074;top=0;left=0;bottom=0;right=0;pointerEvents=1;fontSize=12;align=left;fontColor=#FFFFFF;gradientColor=none;spacingLeft=10;spacingRight=4;" parent="jy213AkqGe8UUyLfZH2U-3" vertex="1">
          <mxGeometry width="180" height="35" as="geometry">
            <mxRectangle width="180" height="35" as="alternateBounds" />
          </mxGeometry>
        </mxCell>
        <mxCell id="jy213AkqGe8UUyLfZH2U-5" value="" style="shape=tableRow;horizontal=0;startSize=0;swimlaneHead=0;swimlaneBody=0;strokeColor=inherit;top=0;left=0;bottom=0;right=0;collapsible=0;dropTarget=0;fillColor=none;points=[[0,0.5],[1,0.5]];portConstraint=eastwest;fontSize=12;" parent="jy213AkqGe8UUyLfZH2U-2" vertex="1">
          <mxGeometry y="35" width="180" height="36" as="geometry" />
        </mxCell>
        <mxCell id="jy213AkqGe8UUyLfZH2U-6" value="Software System" style="shape=partialRectangle;html=1;whiteSpace=wrap;connectable=0;strokeColor=inherit;overflow=hidden;fillColor=#3162AF;top=0;left=0;bottom=0;right=0;pointerEvents=1;fontSize=12;align=left;fontColor=#FFFFFF;gradientColor=none;spacingLeft=10;spacingRight=4;" parent="jy213AkqGe8UUyLfZH2U-5" vertex="1">
          <mxGeometry width="180" height="36" as="geometry">
            <mxRectangle width="180" height="36" as="alternateBounds" />
          </mxGeometry>
        </mxCell>
        <mxCell id="jy213AkqGe8UUyLfZH2U-7" value="" style="shape=tableRow;horizontal=0;startSize=0;swimlaneHead=0;swimlaneBody=0;strokeColor=inherit;top=0;left=0;bottom=0;right=0;collapsible=0;dropTarget=0;fillColor=none;points=[[0,0.5],[1,0.5]];portConstraint=eastwest;fontSize=12;" parent="jy213AkqGe8UUyLfZH2U-2" vertex="1">
          <mxGeometry y="71" width="180" height="23" as="geometry" />
        </mxCell>
        <mxCell id="jy213AkqGe8UUyLfZH2U-8" value="Container" style="shape=partialRectangle;html=1;whiteSpace=wrap;connectable=0;strokeColor=inherit;overflow=hidden;fillColor=#52a2d8;top=0;left=0;bottom=0;right=0;pointerEvents=1;fontSize=12;align=left;fontColor=#FFFFFF;gradientColor=none;spacingLeft=10;spacingRight=4;" parent="jy213AkqGe8UUyLfZH2U-7" vertex="1">
          <mxGeometry width="180" height="23" as="geometry">
            <mxRectangle width="180" height="23" as="alternateBounds" />
          </mxGeometry>
        </mxCell>
        <mxCell id="jy213AkqGe8UUyLfZH2U-9" value="" style="shape=tableRow;horizontal=0;startSize=0;swimlaneHead=0;swimlaneBody=0;strokeColor=inherit;top=0;left=0;bottom=0;right=0;collapsible=0;dropTarget=0;fillColor=none;points=[[0,0.5],[1,0.5]];portConstraint=eastwest;fontSize=12;" parent="jy213AkqGe8UUyLfZH2U-2" vertex="1">
          <mxGeometry y="94" width="180" height="35" as="geometry" />
        </mxCell>
        <mxCell id="jy213AkqGe8UUyLfZH2U-10" value="Component" style="shape=partialRectangle;html=1;whiteSpace=wrap;connectable=0;strokeColor=inherit;overflow=hidden;fillColor=#7dbef2;top=0;left=0;bottom=0;right=0;pointerEvents=1;fontSize=12;align=left;fontColor=#FFFFFF;gradientColor=none;spacingLeft=10;spacingRight=4;" parent="jy213AkqGe8UUyLfZH2U-9" vertex="1">
          <mxGeometry width="180" height="35" as="geometry">
            <mxRectangle width="180" height="35" as="alternateBounds" />
          </mxGeometry>
        </mxCell>
        <mxCell id="jy213AkqGe8UUyLfZH2U-11" value="" style="shape=tableRow;horizontal=0;startSize=0;swimlaneHead=0;swimlaneBody=0;strokeColor=inherit;top=0;left=0;bottom=0;right=0;collapsible=0;dropTarget=0;fillColor=none;points=[[0,0.5],[1,0.5]];portConstraint=eastwest;fontSize=12;" parent="jy213AkqGe8UUyLfZH2U-2" vertex="1">
          <mxGeometry y="129" width="180" height="36" as="geometry" />
        </mxCell>
        <mxCell id="jy213AkqGe8UUyLfZH2U-12" value="External Person" style="shape=partialRectangle;html=1;whiteSpace=wrap;connectable=0;strokeColor=inherit;overflow=hidden;fillColor=#6b6477;top=0;left=0;bottom=0;right=0;pointerEvents=1;fontSize=12;align=left;fontColor=#FFFFFF;gradientColor=none;spacingLeft=10;spacingRight=4;" parent="jy213AkqGe8UUyLfZH2U-11" vertex="1">
          <mxGeometry width="180" height="36" as="geometry">
            <mxRectangle width="180" height="36" as="alternateBounds" />
          </mxGeometry>
        </mxCell>
        <mxCell id="jy213AkqGe8UUyLfZH2U-13" value="" style="shape=tableRow;horizontal=0;startSize=0;swimlaneHead=0;swimlaneBody=0;strokeColor=inherit;top=0;left=0;bottom=0;right=0;collapsible=0;dropTarget=0;fillColor=none;points=[[0,0.5],[1,0.5]];portConstraint=eastwest;fontSize=12;" parent="jy213AkqGe8UUyLfZH2U-2" vertex="1">
          <mxGeometry y="165" width="180" height="35" as="geometry" />
        </mxCell>
        <mxCell id="jy213AkqGe8UUyLfZH2U-14" value="External Software System" style="shape=partialRectangle;html=1;whiteSpace=wrap;connectable=0;strokeColor=inherit;overflow=hidden;fillColor=#8b8496;top=0;left=0;bottom=0;right=0;pointerEvents=1;fontSize=12;align=left;fontColor=#FFFFFF;gradientColor=none;spacingLeft=10;spacingRight=4;" parent="jy213AkqGe8UUyLfZH2U-13" vertex="1">
          <mxGeometry width="180" height="35" as="geometry">
            <mxRectangle width="180" height="35" as="alternateBounds" />
          </mxGeometry>
        </mxCell>
        <object placeholders="1" c4Name="Cliente" c4Type="Person" c4Description="Usuário que navega, adiciona produtos ao carrinho e finaliza compras." label="&lt;font style=&quot;font-size: 16px&quot;&gt;&lt;b&gt;%c4Name%&lt;/b&gt;&lt;/font&gt;&lt;div&gt;[%c4Type%]&lt;/div&gt;&lt;br&gt;&lt;div&gt;&lt;font style=&quot;font-size: 11px&quot;&gt;&lt;font color=&quot;#cccccc&quot;&gt;%c4Description%&lt;/font&gt;&lt;/div&gt;" id="jy213AkqGe8UUyLfZH2U-15">
          <mxCell style="html=1;fontSize=11;dashed=0;whiteSpace=wrap;fillColor=#083F75;strokeColor=#06315C;fontColor=#ffffff;shape=mxgraph.c4.person2;align=center;metaEdit=1;points=[[0.5,0,0],[1,0.5,0],[1,0.75,0],[0.75,1,0],[0.5,1,0],[0.25,1,0],[0,0.75,0],[0,0.5,0]];resizable=0;" parent="1" vertex="1">
            <mxGeometry x="-560" y="220" width="200" height="180" as="geometry" />
          </mxCell>
        </object>
        <object placeholders="1" c4Name="Administrador" c4Type="Person" c4Description="Usuário que gerencia produtos, pedidos e clientes." label="&lt;font style=&quot;font-size: 16px&quot;&gt;&lt;b&gt;%c4Name%&lt;/b&gt;&lt;/font&gt;&lt;div&gt;[%c4Type%]&lt;/div&gt;&lt;br&gt;&lt;div&gt;&lt;font style=&quot;font-size: 11px&quot;&gt;&lt;font color=&quot;#cccccc&quot;&gt;%c4Description%&lt;/font&gt;&lt;/div&gt;" id="jy213AkqGe8UUyLfZH2U-16">
          <mxCell style="html=1;fontSize=11;dashed=0;whiteSpace=wrap;fillColor=#083F75;strokeColor=#06315C;fontColor=#ffffff;shape=mxgraph.c4.person2;align=center;metaEdit=1;points=[[0.5,0,0],[1,0.5,0],[1,0.75,0],[0.75,1,0],[0.5,1,0],[0.25,1,0],[0,0.75,0],[0,0.5,0]];resizable=0;" parent="1" vertex="1">
            <mxGeometry x="-100" y="220" width="200" height="180" as="geometry" />
          </mxCell>
        </object>
        <object placeholders="1" c4Name="Serviço de Notificação" c4Type="Software System" c4Description="Envia emails e notificações para clientes." label="&lt;font style=&quot;font-size: 16px&quot;&gt;&lt;b&gt;%c4Name%&lt;/b&gt;&lt;/font&gt;&lt;div&gt;[%c4Type%]&lt;/div&gt;&lt;br&gt;&lt;div&gt;&lt;font style=&quot;font-size: 11px&quot;&gt;&lt;font color=&quot;#cccccc&quot;&gt;%c4Description%&lt;/font&gt;&lt;/div&gt;" id="jy213AkqGe8UUyLfZH2U-17">
          <mxCell style="rounded=1;whiteSpace=wrap;html=1;labelBackgroundColor=none;fillColor=#1061B0;fontColor=#ffffff;align=center;arcSize=10;strokeColor=#0D5091;metaEdit=1;resizable=0;points=[[0.25,0,0],[0.5,0,0],[0.75,0,0],[1,0.25,0],[1,0.5,0],[1,0.75,0],[0.75,1,0],[0.5,1,0],[0.25,1,0],[0,0.75,0],[0,0.5,0],[0,0.25,0]];" parent="1" vertex="1">
            <mxGeometry x="-680" y="680" width="240" height="120" as="geometry" />
          </mxCell>
        </object>
        <object placeholders="1" c4Name="System name" c4Type="Software System" c4Description="Description of software system." label="&lt;font style=&quot;font-size: 16px&quot;&gt;&lt;b&gt;%c4Name%&lt;/b&gt;&lt;/font&gt;&lt;div&gt;[%c4Type%]&lt;/div&gt;&lt;br&gt;&lt;div&gt;&lt;font style=&quot;font-size: 11px&quot;&gt;&lt;font color=&quot;#cccccc&quot;&gt;%c4Description%&lt;/font&gt;&lt;/div&gt;" id="jy213AkqGe8UUyLfZH2U-18">
          <mxCell style="rounded=1;whiteSpace=wrap;html=1;labelBackgroundColor=none;fillColor=#1061B0;fontColor=#ffffff;align=center;arcSize=10;strokeColor=#0D5091;metaEdit=1;resizable=0;points=[[0.25,0,0],[0.5,0,0],[0.75,0,0],[1,0.25,0],[1,0.5,0],[1,0.75,0],[0.75,1,0],[0.5,1,0],[0.25,1,0],[0,0.75,0],[0,0.5,0],[0,0.25,0]];" parent="1" vertex="1">
            <mxGeometry x="-350" y="510" width="240" height="120" as="geometry" />
          </mxCell>
        </object>
        <object placeholders="1" c4Name="Gateway de Pagamento." c4Type="Software System" c4Description="Serviço terceirizado para processar pagamentos" label="&lt;font style=&quot;font-size: 16px&quot;&gt;&lt;b&gt;%c4Name%&lt;/b&gt;&lt;/font&gt;&lt;div&gt;[%c4Type%]&lt;/div&gt;&lt;br&gt;&lt;div&gt;&lt;font style=&quot;font-size: 11px&quot;&gt;&lt;font color=&quot;#cccccc&quot;&gt;%c4Description%&lt;/font&gt;&lt;/div&gt;" id="jy213AkqGe8UUyLfZH2U-19">
          <mxCell style="rounded=1;whiteSpace=wrap;html=1;labelBackgroundColor=none;fillColor=#8C8496;fontColor=#ffffff;align=center;arcSize=10;strokeColor=#736782;metaEdit=1;resizable=0;points=[[0.25,0,0],[0.5,0,0],[0.75,0,0],[1,0.25,0],[1,0.5,0],[1,0.75,0],[0.75,1,0],[0.5,1,0],[0.25,1,0],[0,0.75,0],[0,0.5,0],[0,0.25,0]];" parent="1" vertex="1">
            <mxGeometry y="680" width="240" height="120" as="geometry" />
          </mxCell>
        </object>
        <object placeholders="1" c4Name="[System Context] E-commerce System" c4Type="ContainerScopeBoundary" c4Description="Plataforma de E-Commerce baseada em Microserviços." label="&lt;font style=&quot;font-size: 16px&quot;&gt;&lt;b&gt;&lt;div style=&quot;text-align: left&quot;&gt;%c4Name%&lt;/div&gt;&lt;/b&gt;&lt;/font&gt;&lt;div style=&quot;text-align: left&quot;&gt;%c4Description%&lt;/div&gt;" id="aOjCCVV3pZHzIbnjZ30T-1">
          <mxCell style="text;html=1;strokeColor=none;fillColor=none;align=left;verticalAlign=top;whiteSpace=wrap;rounded=0;metaEdit=1;allowArrows=0;resizable=1;rotatable=0;connectable=0;recursiveResize=0;expand=0;pointerEvents=0;points=[[0.25,0,0],[0.5,0,0],[0.75,0,0],[1,0.25,0],[1,0.5,0],[1,0.75,0],[0.75,1,0],[0.5,1,0],[0.25,1,0],[0,0.75,0],[0,0.5,0],[0,0.25,0]];" parent="1" vertex="1">
            <mxGeometry x="-380" y="140" width="320" height="40" as="geometry" />
          </mxCell>
        </object>
      </root>
    </mxGraphModel>
  </diagram>
  <diagram id="NhFY8Xkae_zFv0b7p6Fo" name="Conteiner">
    <mxGraphModel dx="2261" dy="836" grid="1" gridSize="10" guides="1" tooltips="1" connect="1" arrows="1" fold="1" page="1" pageScale="1" pageWidth="827" pageHeight="1169" math="0" shadow="0">
      <root>
        <mxCell id="0" />
        <mxCell id="1" parent="0" />
        <UserObject label="# Contêiner (Nível 2)&#xa;System_Boundary(&quot;E-commerce System&quot;) {&#xa;    Container(&quot;Web App&quot;, &quot;React&quot;, &quot;Interface do usuário para clientes e administradores.&quot;)&#xa;    Container(&quot;API Gateway&quot;, &quot;NGINX&quot;, &quot;Orquestra chamadas para os microserviços.&quot;)&#xa;    Container(&quot;Auth Service&quot;, &quot;Node.js + JWT&quot;, &quot;Gerencia autenticação e autorização de usuários.&quot;)&#xa;    Container(&quot;Product Service&quot;, &quot;Node.js&quot;, &quot;Gerencia listagem e detalhes dos produtos.&quot;)&#xa;    Container(&quot;Order Service&quot;, &quot;Node.js&quot;, &quot;Gerencia pedidos e processos de checkout.&quot;)&#xa;    Container(&quot;Cart Service&quot;, &quot;Redis&quot;, &quot;Gerencia o carrinho de compras de forma rápida e eficiente.&quot;)&#xa;    Container(&quot;Payment Service&quot;, &quot;Node.js + Stripe SDK&quot;, &quot;Interage com o Gateway de Pagamento para processar transações.&quot;)&#xa;    Container(&quot;Notification Service&quot;, &quot;Node.js + Firebase&quot;, &quot;Envia emails e notificações push para os clientes.&quot;)&#xa;    Container(&quot;Banco de Dados&quot;, &quot;PostgreSQL&quot;, &quot;Armazena dados dos produtos, pedidos e clientes.&quot;)&#xa;}" link="# Contêiner (Nível 2)&#xa;System_Boundary(&quot;E-commerce System&quot;) {&#xa;    Container(&quot;Web App&quot;, &quot;React&quot;, &quot;Interface do usuário para clientes e administradores.&quot;)&#xa;    Container(&quot;API Gateway&quot;, &quot;NGINX&quot;, &quot;Orquestra chamadas para os microserviços.&quot;)&#xa;    Container(&quot;Auth Service&quot;, &quot;Node.js + JWT&quot;, &quot;Gerencia autenticação e autorização de usuários.&quot;)&#xa;    Container(&quot;Product Service&quot;, &quot;Node.js&quot;, &quot;Gerencia listagem e detalhes dos produtos.&quot;)&#xa;    Container(&quot;Order Service&quot;, &quot;Node.js&quot;, &quot;Gerencia pedidos e processos de checkout.&quot;)&#xa;    Container(&quot;Cart Service&quot;, &quot;Redis&quot;, &quot;Gerencia o carrinho de compras de forma rápida e eficiente.&quot;)&#xa;    Container(&quot;Payment Service&quot;, &quot;Node.js + Stripe SDK&quot;, &quot;Interage com o Gateway de Pagamento para processar transações.&quot;)&#xa;    Container(&quot;Notification Service&quot;, &quot;Node.js + Firebase&quot;, &quot;Envia emails e notificações push para os clientes.&quot;)&#xa;    Container(&quot;Banco de Dados&quot;, &quot;PostgreSQL&quot;, &quot;Armazena dados dos produtos, pedidos e clientes.&quot;)&#xa;}" id="WmJZMEh_gsDp5ohOC_eQ-1">
          <mxCell style="text;whiteSpace=wrap;" parent="1" vertex="1">
            <mxGeometry x="-810" y="10" width="700" height="220" as="geometry" />
          </mxCell>
        </UserObject>
        <object placeholders="1" c4Name="Container name" c4Type="Container" c4Technology="e.g. SpringBoot, ElasticSearch, etc." c4Description="Description of container role/responsibility." label="&lt;font style=&quot;font-size: 16px&quot;&gt;&lt;b&gt;%c4Name%&lt;/b&gt;&lt;/font&gt;&lt;div&gt;[%c4Type%: %c4Technology%]&lt;/div&gt;&lt;br&gt;&lt;div&gt;&lt;font style=&quot;font-size: 11px&quot;&gt;&lt;font color=&quot;#E6E6E6&quot;&gt;%c4Description%&lt;/font&gt;&lt;/div&gt;" id="HXdzrMgc1Pgs4XxUNcSu-1">
          <mxCell style="rounded=1;whiteSpace=wrap;html=1;fontSize=11;labelBackgroundColor=none;fillColor=#23A2D9;fontColor=#ffffff;align=center;arcSize=10;strokeColor=#0E7DAD;metaEdit=1;resizable=0;points=[[0.25,0,0],[0.5,0,0],[0.75,0,0],[1,0.25,0],[1,0.5,0],[1,0.75,0],[0.75,1,0],[0.5,1,0],[0.25,1,0],[0,0.75,0],[0,0.5,0],[0,0.25,0]];" parent="1" vertex="1">
            <mxGeometry x="-810" y="290" width="240" height="120" as="geometry" />
          </mxCell>
        </object>
        <object placeholders="1" c4Name="Container name" c4Type="ContainerScopeBoundary" c4Application="Container" label="&lt;font style=&quot;font-size: 16px&quot;&gt;&lt;b&gt;&lt;div style=&quot;text-align: left&quot;&gt;%c4Name%&lt;/div&gt;&lt;/b&gt;&lt;/font&gt;&lt;div style=&quot;text-align: left&quot;&gt;[%c4Application%]&lt;/div&gt;" id="HXdzrMgc1Pgs4XxUNcSu-2">
          <mxCell style="rounded=1;fontSize=11;whiteSpace=wrap;html=1;dashed=1;arcSize=20;fillColor=none;strokeColor=#666666;fontColor=#333333;labelBackgroundColor=none;align=left;verticalAlign=bottom;labelBorderColor=none;spacingTop=0;spacing=10;dashPattern=8 4;metaEdit=1;rotatable=0;perimeter=rectanglePerimeter;noLabel=0;labelPadding=0;allowArrows=0;connectable=0;expand=0;recursiveResize=0;editable=1;pointerEvents=0;absoluteArcSize=1;points=[[0.25,0,0],[0.5,0,0],[0.75,0,0],[1,0.25,0],[1,0.5,0],[1,0.75,0],[0.75,1,0],[0.5,1,0],[0.25,1,0],[0,0.75,0],[0,0.5,0],[0,0.25,0]];" parent="1" vertex="1">
            <mxGeometry x="-153" y="290" width="240" height="210" as="geometry" />
          </mxCell>
        </object>
        <object placeholders="1" c4Name="System name" c4Type="SystemScopeBoundary" c4Application="Software System" label="&lt;font style=&quot;font-size: 16px&quot;&gt;&lt;b&gt;&lt;div style=&quot;text-align: left&quot;&gt;%c4Name%&lt;/div&gt;&lt;/b&gt;&lt;/font&gt;&lt;div style=&quot;text-align: left&quot;&gt;[%c4Application%]&lt;/div&gt;" id="HXdzrMgc1Pgs4XxUNcSu-3">
          <mxCell style="rounded=1;fontSize=11;whiteSpace=wrap;html=1;dashed=1;arcSize=20;fillColor=none;strokeColor=#666666;fontColor=#333333;labelBackgroundColor=none;align=left;verticalAlign=bottom;labelBorderColor=none;spacingTop=0;spacing=10;dashPattern=8 4;metaEdit=1;rotatable=0;perimeter=rectanglePerimeter;noLabel=0;labelPadding=0;allowArrows=0;connectable=0;expand=0;recursiveResize=0;editable=1;pointerEvents=0;absoluteArcSize=1;points=[[0.25,0,0],[0.5,0,0],[0.75,0,0],[1,0.25,0],[1,0.5,0],[1,0.75,0],[0.75,1,0],[0.5,1,0],[0.25,1,0],[0,0.75,0],[0,0.5,0],[0,0.25,0]];" parent="1" vertex="1">
            <mxGeometry x="-153" y="530" width="240" height="210" as="geometry" />
          </mxCell>
        </object>
        <object placeholders="1" c4Name="[Containers] Diagram title" c4Type="ContainerDiagramTitle" c4Description="Diagram short description" label="&lt;font style=&quot;font-size: 16px&quot;&gt;&lt;b&gt;&lt;div style=&quot;text-align: left&quot;&gt;%c4Name%&lt;/div&gt;&lt;/b&gt;&lt;/font&gt;&lt;div style=&quot;text-align: left&quot;&gt;%c4Description%&lt;/div&gt;" id="HXdzrMgc1Pgs4XxUNcSu-4">
          <mxCell style="text;html=1;strokeColor=none;fillColor=none;align=left;verticalAlign=top;whiteSpace=wrap;rounded=0;metaEdit=1;allowArrows=0;resizable=1;rotatable=0;connectable=0;recursiveResize=0;expand=0;pointerEvents=0;points=[[0.25,0,0],[0.5,0,0],[0.75,0,0],[1,0.25,0],[1,0.5,0],[1,0.75,0],[0.75,1,0],[0.5,1,0],[0.25,1,0],[0,0.75,0],[0,0.5,0],[0,0.25,0]];" parent="1" vertex="1">
            <mxGeometry x="-630" y="200" width="260" height="40" as="geometry" />
          </mxCell>
        </object>
        <object placeholders="1" c4Name="[Containers] Diagram title" c4Type="ContainerDiagramTitle" c4Description="Diagram short description" label="&lt;font style=&quot;font-size: 16px&quot;&gt;&lt;b&gt;&lt;div style=&quot;text-align: left&quot;&gt;%c4Name%&lt;/div&gt;&lt;/b&gt;&lt;/font&gt;&lt;div style=&quot;text-align: left&quot;&gt;%c4Description%&lt;/div&gt;" id="2dNFlaMMEUhHgYujeQga-1">
          <mxCell style="text;html=1;strokeColor=none;fillColor=none;align=left;verticalAlign=top;whiteSpace=wrap;rounded=0;metaEdit=1;allowArrows=0;resizable=1;rotatable=0;connectable=0;recursiveResize=0;expand=0;pointerEvents=0;points=[[0.25,0,0],[0.5,0,0],[0.75,0,0],[1,0.25,0],[1,0.5,0],[1,0.75,0],[0.75,1,0],[0.5,1,0],[0.25,1,0],[0,0.75,0],[0,0.5,0],[0,0.25,0]];" parent="1" vertex="1">
            <mxGeometry x="-310" y="200" width="260" height="40" as="geometry" />
          </mxCell>
        </object>
        <object placeholders="1" c4Name="Container name" c4Type="Container" c4Technology="e.g. Micronaut, etc." c4Description="Description of microservice type container role/responsibility." label="&lt;font style=&quot;font-size: 16px&quot;&gt;&lt;b&gt;%c4Name%&lt;/b&gt;&lt;/font&gt;&lt;div&gt;[%c4Type%:&amp;nbsp;%c4Technology%]&lt;/div&gt;&lt;br&gt;&lt;div&gt;&lt;font style=&quot;font-size: 11px&quot;&gt;&lt;font color=&quot;#E6E6E6&quot;&gt;%c4Description%&lt;/font&gt;&lt;/div&gt;" id="OR9DsDipej5HJdMLr7qq-1">
          <mxCell style="shape=hexagon;size=50;perimeter=hexagonPerimeter2;whiteSpace=wrap;html=1;fixedSize=1;rounded=1;labelBackgroundColor=none;fillColor=#23A2D9;fontSize=12;fontColor=#ffffff;align=center;strokeColor=#0E7DAD;metaEdit=1;points=[[0.5,0,0],[1,0.25,0],[1,0.5,0],[1,0.75,0],[0.5,1,0],[0,0.75,0],[0,0.5,0],[0,0.25,0]];resizable=0;" parent="1" vertex="1">
            <mxGeometry x="-800" y="510" width="200" height="170" as="geometry" />
          </mxCell>
        </object>
        <object placeholders="1" c4Name="Container name" c4Type="Container" c4Technology="e.g. Oracle Database 12" c4Description="Description of storage type container role/responsibility." label="&lt;font style=&quot;font-size: 16px&quot;&gt;&lt;b&gt;%c4Name%&lt;/b&gt;&lt;/font&gt;&lt;div&gt;[%c4Type%:&amp;nbsp;%c4Technology%]&lt;/div&gt;&lt;br&gt;&lt;div&gt;&lt;font style=&quot;font-size: 11px&quot;&gt;&lt;font color=&quot;#E6E6E6&quot;&gt;%c4Description%&lt;/font&gt;&lt;/div&gt;" id="OR9DsDipej5HJdMLr7qq-2">
          <mxCell style="shape=cylinder3;size=15;whiteSpace=wrap;html=1;boundedLbl=1;rounded=0;labelBackgroundColor=none;fillColor=#23A2D9;fontSize=12;fontColor=#ffffff;align=center;strokeColor=#0E7DAD;metaEdit=1;points=[[0.5,0,0],[1,0.25,0],[1,0.5,0],[1,0.75,0],[0.5,1,0],[0,0.75,0],[0,0.5,0],[0,0.25,0]];resizable=0;" parent="1" vertex="1">
            <mxGeometry x="-510" y="300" width="240" height="120" as="geometry" />
          </mxCell>
        </object>
      </root>
    </mxGraphModel>
  </diagram>
  <diagram id="eqpeSXdFMW8zxq_WCb1n" name="Componente">
    <mxGraphModel dx="2261" dy="836" grid="1" gridSize="10" guides="1" tooltips="1" connect="1" arrows="1" fold="1" page="1" pageScale="1" pageWidth="827" pageHeight="1169" math="0" shadow="0">
      <root>
        <mxCell id="0" />
        <mxCell id="1" parent="0" />
        <UserObject label="# Componentes (Nível 3)&#xa;Container_Boundary(&quot;API Gateway&quot;) &#xa;{&#xa;    Component(&quot;Request Router&quot;, &quot;NGINX&quot;, &quot;Encaminha requisições para os serviços apropriados.&quot;)&#xa;}&#xa;&#xa;&#xa;Container_Boundary(&quot;Auth Service&quot;) &#xa;{&#xa;    Component(&quot;Token Manager&quot;, &quot;JWT&quot;, &quot;Gera e valida tokens de autenticação.&quot;)&#xa;    Component(&quot;User Database&quot;, &quot;MongoDB&quot;, &quot;Armazena informações dos usuários.&quot;)&#xa;}&#xa;&#xa;&#xa;Container_Boundary(&quot;Product Service&quot;) &#xa;{&#xa;    Component(&quot;Product Catalog&quot;, &quot;Node.js&quot;, &quot;Gerencia listagem e detalhes dos produtos.&quot;)&#xa;    Component(&quot;Product Database&quot;, &quot;PostgreSQL&quot;, &quot;Armazena informações dos produtos.&quot;)&#xa;}&#xa;&#xa;&#xa;Container_Boundary(&quot;Order Service&quot;) &#xa;{&#xa;    Component(&quot;Order Processor&quot;, &quot;Node.js&quot;, &quot;Gerencia pedidos e status de checkout.&quot;)&#xa;    Component(&quot;Order Database&quot;, &quot;PostgreSQL&quot;, &quot;Armazena informações dos pedidos.&quot;)&#xa;}&#xa;&#xa;&#xa;Container_Boundary(&quot;Cart Service&quot;) &#xa;{&#xa;    Component(&quot;Cart Manager&quot;, &quot;Redis&quot;, &quot;Gerencia os itens temporários no carrinho.&quot;)&#xa;}&#xa;&#xa;&#xa;Container_Boundary(&quot;Payment Service&quot;) &#xa;{&#xa;    Component(&quot;Payment Processor&quot;, &quot;Stripe SDK&quot;, &quot;Processa pagamentos online.&quot;)&#xa;}&#xa;&#xa;&#xa;Container_Boundary(&quot;Notification Service&quot;) &#xa;{&#xa;    Component(&quot;Email Sender&quot;, &quot;Firebase SDK&quot;, &quot;Envia notificações por email.&quot;)&#xa;    Component(&quot;Push Notifier&quot;, &quot;Firebase SDK&quot;, &quot;Envia notificações push.&quot;)&#xa;}" link="# Componentes (Nível 3)&#xa;Container_Boundary(&quot;API Gateway&quot;) &#xa;{&#xa;    Component(&quot;Request Router&quot;, &quot;NGINX&quot;, &quot;Encaminha requisições para os serviços apropriados.&quot;)&#xa;}&#xa;&#xa;&#xa;Container_Boundary(&quot;Auth Service&quot;) &#xa;{&#xa;    Component(&quot;Token Manager&quot;, &quot;JWT&quot;, &quot;Gera e valida tokens de autenticação.&quot;)&#xa;    Component(&quot;User Database&quot;, &quot;MongoDB&quot;, &quot;Armazena informações dos usuários.&quot;)&#xa;}&#xa;&#xa;&#xa;Container_Boundary(&quot;Product Service&quot;) &#xa;{&#xa;    Component(&quot;Product Catalog&quot;, &quot;Node.js&quot;, &quot;Gerencia listagem e detalhes dos produtos.&quot;)&#xa;    Component(&quot;Product Database&quot;, &quot;PostgreSQL&quot;, &quot;Armazena informações dos produtos.&quot;)&#xa;}&#xa;&#xa;&#xa;Container_Boundary(&quot;Order Service&quot;) &#xa;{&#xa;    Component(&quot;Order Processor&quot;, &quot;Node.js&quot;, &quot;Gerencia pedidos e status de checkout.&quot;)&#xa;    Component(&quot;Order Database&quot;, &quot;PostgreSQL&quot;, &quot;Armazena informações dos pedidos.&quot;)&#xa;}&#xa;&#xa;&#xa;Container_Boundary(&quot;Cart Service&quot;) &#xa;{&#xa;    Component(&quot;Cart Manager&quot;, &quot;Redis&quot;, &quot;Gerencia os itens temporários no carrinho.&quot;)&#xa;}&#xa;&#xa;&#xa;Container_Boundary(&quot;Payment Service&quot;) &#xa;{&#xa;    Component(&quot;Payment Processor&quot;, &quot;Stripe SDK&quot;, &quot;Processa pagamentos online.&quot;)&#xa;}&#xa;&#xa;&#xa;Container_Boundary(&quot;Notification Service&quot;) &#xa;{&#xa;    Component(&quot;Email Sender&quot;, &quot;Firebase SDK&quot;, &quot;Envia notificações por email.&quot;)&#xa;    Component(&quot;Push Notifier&quot;, &quot;Firebase SDK&quot;, &quot;Envia notificações push.&quot;)&#xa;}" id="kgxiuB0vG38wj7kgfinn-1">
          <mxCell style="text;whiteSpace=wrap;" vertex="1" parent="1">
            <mxGeometry x="-320" y="10" width="610" height="660" as="geometry" />
          </mxCell>
        </UserObject>
        <object placeholders="1" c4Name="Component name" c4Type="Component" c4Technology="e.g. Spring Service" c4Description="Description of component role/responsibility." label="&lt;font style=&quot;font-size: 16px&quot;&gt;&lt;b&gt;%c4Name%&lt;/b&gt;&lt;/font&gt;&lt;div&gt;[%c4Type%: %c4Technology%]&lt;/div&gt;&lt;br&gt;&lt;div&gt;&lt;font style=&quot;font-size: 11px&quot;&gt;%c4Description%&lt;/font&gt;&lt;/div&gt;" id="uttXz4iInfZ_cnwL9NUt-1">
          <mxCell style="rounded=1;whiteSpace=wrap;html=1;labelBackgroundColor=none;fillColor=#63BEF2;fontColor=#ffffff;align=center;arcSize=6;strokeColor=#2086C9;metaEdit=1;resizable=0;points=[[0.25,0,0],[0.5,0,0],[0.75,0,0],[1,0.25,0],[1,0.5,0],[1,0.75,0],[0.75,1,0],[0.5,1,0],[0.25,1,0],[0,0.75,0],[0,0.5,0],[0,0.25,0]];" vertex="1" parent="1">
            <mxGeometry x="-110" y="840" width="240" height="120" as="geometry" />
          </mxCell>
        </object>
        <object placeholders="1" c4Name="[Components] Diagram title" c4Type="ContainerDiagramTitle" c4Description="Diagram short description" label="&lt;font style=&quot;font-size: 16px&quot;&gt;&lt;b&gt;&lt;div style=&quot;text-align: left&quot;&gt;%c4Name%&lt;/div&gt;&lt;/b&gt;&lt;/font&gt;&lt;div style=&quot;text-align: left&quot;&gt;%c4Description%&lt;/div&gt;" id="uttXz4iInfZ_cnwL9NUt-2">
          <mxCell style="text;html=1;strokeColor=none;fillColor=none;align=left;verticalAlign=top;whiteSpace=wrap;rounded=0;metaEdit=1;allowArrows=0;resizable=1;rotatable=0;connectable=0;recursiveResize=0;expand=0;pointerEvents=0;points=[[0.25,0,0],[0.5,0,0],[0.75,0,0],[1,0.25,0],[1,0.5,0],[1,0.75,0],[0.75,1,0],[0.5,1,0],[0.25,1,0],[0,0.75,0],[0,0.5,0],[0,0.25,0]];" vertex="1" parent="1">
            <mxGeometry x="120" y="680" width="260" height="40" as="geometry" />
          </mxCell>
        </object>
      </root>
    </mxGraphModel>
  </diagram>
</mxfile>
